#!OML:ASF H:\Not Pregnant\Project 1\Capture day 1\Session 1\non-pregnant.ASF
:FULLY-SPECIFIED
:DEGREES
442
root -5.73895 16.204 34.4705 143.385 -84.8996 -127.785
lowerback 0.564361 4.34365 5.22001
upperback -17.0053 5.0927 -2.8734
thorax -19.0591 0.765037 -6.90292
lowerneck -3.97906 -3.76655 -33.7874
upperneck 4.86512 -4.95291 29.0638
head 3.76507 -2.42342 15.8456
rclavicle -1.03368e-014 -2.3059e-014
rhumerus 93.4488 -60.8639 -41.6004
rradius 24.3946
rwrist 25.7599
rhand -16.7147 -10.94
rfingers 7.12502
rthumb 9.51065 -40.7053
lclavicle -1.03368e-014 -2.3059e-014
lhumerus 38.242 52.8329 -9.44824
lradius 31.2554
lwrist 32.6726
lhand -24.3688 -27.6046
lfingers 7.12502
lthumb 2.12117 2.36462
rfemur -18.6259 -19.9571 26.655
rtibia 16.4628
rfoot -16.4599 25.3907
rtoes 0.737183
lfemur -23.2878 9.06498 -15.6985
ltibia 21.7351
lfoot -16.4285 -11.6323
ltoes -12.4901
443
root -5.7362 16.2046 34.4699 143.348 -84.889 -127.728
lowerback 0.594958 4.34111 5.21958
upperback -16.9973 5.09244 -2.87504
thorax -19.0691 0.764828 -6.90718
lowerneck -4.05751 -3.73669 -33.7695
upperneck 4.84521 -4.88019 29.0653
head 3.74817 -2.38021 15.847
rclavicle -2.8625e-014 -2.38542e-015
rhumerus 93.277 -60.9503 -41.4392
rradius 24.3956
rwrist 25.9394
rhand -16.4488 -10.8646
rfingers 7.12502
rthumb 9.76721 -40.6181
lclavicle -2.8625e-014 -2.38542e-015
lhumerus 38.1207 52.8389 -9.50157
lradius 31.1626
lwrist 32.2933
lhand -24.232 -27.3299
lfingers 7.12502
lthumb 2.25332 2.63797
rfemur -18.6571 -19.9542 26.6825
rtibia 16.4556
rfoot -16.4477 25.4002
rtoes 0.72638
lfemur -23.3277 9.08557 -15.6905
ltibia 21.7467
lfoot -16.4174 -11.6462
ltoes -12.4684
444
root -5.73329 16.2052 34.4692 143.286 -84.8797 -127.642
lowerback 0.625002 4.33489 5.22116
upperback -16.992 5.08685 -2.87659
thorax -19.0832 0.761274 -6.91181
lowerneck -4.1324 -3.70491 -33.7452
upperneck 4.82954 -4.80705 29.0649
head 3.73136 -2.3371 15.8463
rclavicle 3.97569e-014 2.38542e-015
rhumerus 93.1061 -61.0342 -41.2848
rradius 24.3895
rwrist 26.1179
rhand -16.1896 -10.774
rfingers 7.12502
rthumb 10.0172 -40.5156
lclavicle 3.97569e-014 2.38542e-015
lhumerus 37.9999 52.848 -9.55637
lradius 31.0832
lwrist 31.9619
lhand -24.2506 -25.9762
lfingers 7.12502
lthumb 2.23533 3.99188
rfemur -18.6918 -19.9499 26.7128
rtibia 16.4449
rfoot -16.431 25.4078
rtoes 0.723446
lfemur -23.3726 9.09359 -15.6796
ltibia 21.7593
lfoot -16.4051 -11.6494
ltoes -12.447
445
root -5.73021 16.2058 34.4686 143.217 -84.8724 -127.546
lowerback 0.657491 4.32496 5.22112
upperback -16.9896 5.07566 -2.87822
thorax -19.1044 0.754579 -6.91534
lowerneck -4.20112 -3.66907 -33.7022
upperneck 4.81654 -4.73126 29.0545
head 3.71234 -2.29293 15.8373
rclavicle -2.78299e-015 1.11319e-014
rhumerus 92.9367 -61.1165 -41.1405
rradius 24.3743
rwrist 26.3032
rhand -15.9522 -10.6582
rfingers 7.12502
rthumb 10.2463 -40.3886
lclavicle -2.78299e-015 1.11319e-014
lhumerus 37.8716 52.8573 -9.61901
lradius 31.0216
lwrist 31.6861
lhand -24.366 -23.8923
lfingers 7.12502
lthumb 2.12387 6.07688
rfemur -18.7289 -19.9362 26.7417
rtibia 16.4331
rfoot -16.4111 25.4034
rtoes 0.725489
lfemur -23.421 9.09495 -15.669
ltibia 21.7712
lfoot -16.3936 -11.6469
ltoes -12.4418
446
root -5.72702 16.2064 34.4681 143.112 -84.8665 -127.414
lowerback 0.695471 4.30942 5.22305
upperback -16.9901 5.05757 -2.87504
thorax -19.1349 0.744046 -6.91404
lowerneck -4.27008 -3.62823 -33.6458
upperneck 4.80895 -4.64826 29.0256
head 3.69134 -2.24515 15.8174
rclavicle 3.57812e-015 2.54444e-014
rhumerus 92.7842 -61.1895 -41.0149
rradius 24.3463
rwrist 26.4916
rhand -15.7448 -10.5209
rfingers 7.12502
rthumb 10.4464 -40.2414
lclavicle 3.57812e-015 2.54444e-014
lhumerus 37.7138 52.8667 -9.7015
lradius 30.9759
lwrist 31.4527
lhand -24.4836 -21.6151
lfingers 7.12502
lthumb 2.01028 8.35518
rfemur -18.7716 -19.9348 26.7749
rtibia 16.4247
rfoot -16.3853 25.4141
rtoes 0.757871
lfemur -23.4706 9.09179 -15.6566
ltibia 21.7804
lfoot -16.3827 -11.6422
ltoes -12.4437
447
root -5.72375 16.207 34.4676 143.014 -84.8628 -127.287
lowerback 0.738645 4.29049 5.223
upperback -16.9922 5.03535 -2.86741
thorax -19.1725 0.731807 -6.90644
lowerneck -4.335 -3.58539 -33.6007
upperneck 4.80546 -4.56332 28.9953
head 3.67036 -2.19698 15.7994
rclavicle -2.0276e-014 -8.74653e-015
rhumerus 92.6634 -61.2539 -40.9194
rradius 24.3057
rwrist 26.6851
rhand -15.574 -10.3763
rfingers 7.12502
rthumb 10.6111 -40.0884
lclavicle -2.0276e-014 -8.74653e-015
lhumerus 37.502 52.8634 -9.829
lradius 30.9432
lwrist 31.2638
lhand -24.5416 -19.8422
lfingers 7.12502
lthumb 1.95431 10.1286
rfemur -18.816 -19.9252 26.8044
rtibia 16.4199
rfoot -16.3598 25.4154
rtoes 0.790429
lfemur -23.5192 9.07895 -15.645
ltibia 21.7864
lfoot -16.3707 -11.6285
ltoes -12.4583
448
root -5.72045 16.2074 34.467 142.969 -84.8649 -127.214
lowerback 0.789162 4.27181 5.21042
upperback -16.9953 5.01306 -2.85673
thorax -19.2179 0.721337 -6.88911
lowerneck -4.3966 -3.54355 -33.5713
upperneck 4.80457 -4.47981 28.9631
head 3.65041 -2.15008 15.7836
rclavicle -2.50469e-014 -4.21423e-014
rhumerus 92.5509 -61.3157 -40.8205
rradius 24.2579
rwrist 26.8613
rhand -15.4308 -10.2126
rfingers 7.12502
rthumb 10.7492 -39.9175
lclavicle -2.50469e-014 -4.21423e-014
lhumerus 37.2673 52.8553 -9.96525
lradius 30.9113
lwrist 31.0889
lhand -24.5057 -18.8761
lfingers 7.12502
lthumb 1.98893 11.0943
rfemur -18.866 -19.9482 26.8328
rtibia 16.4188
rfoot -16.337 25.4472
rtoes 0.828656
lfemur -23.5667 9.06809 -15.6421
ltibia 21.7891
lfoot -16.3547 -11.6239
ltoes -12.4531
449
root -5.71716 16.208 34.4664 142.929 -84.8697 -127.147
lowerback 0.843874 4.25536 5.19696
upperback -16.9962 4.99422 -2.8478
thorax -19.2624 0.712717 -6.87407
lowerneck -4.45546 -3.50592 -33.5591
upperneck 4.80239 -4.40242 28.9381
head 3.63249 -2.10665 15.7743
rclavicle -4.41302e-014 2.38542e-015
rhumerus 92.4639 -61.3831 -40.7411
rradius 24.202
rwrist 27.0396
rhand -15.3157 -10.0394
rfingers 7.12502
rthumb 10.8602 -39.7386
lclavicle -4.41302e-014 2.38542e-015
lhumerus 37.0163 52.8438 -10.1118
lradius 30.8754
lwrist 30.9127
lhand -24.3845 -18.9413
lfingers 7.12502
lthumb 2.106 11.028
rfemur -18.9154 -19.9657 26.8557
rtibia 16.4217
rfoot -16.3095 25.476
rtoes 0.888395
lfemur -23.6114 9.05895 -15.6424
ltibia 21.7879
lfoot -16.3347 -11.6247
ltoes -12.4348
450
root -5.71386 16.2087 34.4659 142.893 -84.8795 -127.085
lowerback 0.901339 4.24473 5.18325
upperback -16.9943 4.98293 -2.84777
thorax -19.3028 0.707162 -6.87056
lowerneck -4.51778 -3.4799 -33.5686
upperneck 4.80604 -4.34157 28.9305
head 3.62377 -2.07175 15.7769
rclavicle -1.19271e-014 3.18055e-015
rhumerus 92.368 -61.4674 -40.6468
rradius 24.1519
rwrist 27.2018
rhand -15.1918 -9.90176
rfingers 7.12502
rthumb 10.9798 -39.5946
lclavicle -1.19271e-014 3.18055e-015
lhumerus 36.813 52.8454 -10.2128
lradius 30.8235
lwrist 30.6954
lhand -24.2607 -19.0168
lfingers 7.12502
lthumb 2.22557 10.9514
rfemur -18.9663 -19.9926 26.8751
rtibia 16.4283
rfoot -16.285 25.5088
rtoes 0.943961
lfemur -23.6535 9.04391 -15.6466
ltibia 21.7832
lfoot -16.3104 -11.6253
ltoes -12.411
